<?xml version="1.0" encoding="utf-8"?>
<!-- Generator: Adobe Illustrator 28.0.0, SVG Export Plug-In . SVG Version: 6.00 Build 0)  -->
<svg version="1.1" id="Layer_1" xmlns="http://www.w3.org/2000/svg" xmlns:xlink="http://www.w3.org/1999/xlink" x="0px" y="0px"
	 width="91.75px" height="29px" viewBox="0 0 91.75 29" enable-background="new 0 0 91.75 29" xml:space="preserve">
<g>
	<path fill="#FBDC57" d="M28.58,14.08L28.58,14.08c-0.19,0-0.37-0.05-0.52-0.16c-0.21-0.16-0.31-0.35-0.34-0.46
		c-0.01-0.11-0.02-0.22-0.03-0.33c0.01-0.09,0.05-0.33,0.25-0.55c0.13-0.14,0.29-0.22,0.48-0.26l0,0c0.27-0.05,0.45-0.32,0.4-0.6
		c-0.05-0.27-0.32-0.45-0.6-0.4l0,0c-0.18,0.04-0.37,0.02-0.54-0.06c-0.24-0.11-0.37-0.29-0.43-0.38c-0.05-0.18-0.11-0.35-0.16-0.53
		l0,0c0,0-0.07-0.3,0.12-0.63c0.09-0.16,0.24-0.28,0.41-0.35l0,0C27.89,9.26,28,8.96,27.89,8.7c-0.11-0.26-0.41-0.38-0.67-0.26l0,0
		c-0.17,0.07-0.36,0.1-0.54,0.06c-0.37-0.08-0.55-0.34-0.55-0.34l0.01,0.03c-0.06-0.12-0.13-0.23-0.2-0.34
		c-0.03-0.11-0.06-0.32,0.02-0.57c0.06-0.17,0.18-0.32,0.33-0.43l0,0c0.23-0.16,0.29-0.48,0.13-0.71c-0.16-0.23-0.48-0.29-0.71-0.13
		l0,0c-0.15,0.11-0.33,0.17-0.52,0.16c-0.3-0.01-0.5-0.14-0.58-0.2c-0.1-0.12-0.2-0.24-0.31-0.35l0.03,0.03c0,0-0.18-0.25-0.14-0.63
		c0.02-0.18,0.11-0.35,0.23-0.49l0,0c0.19-0.21,0.18-0.53-0.03-0.72h0c-0.21-0.19-0.53-0.18-0.72,0.03l0,0
		c-0.13,0.14-0.29,0.23-0.47,0.27c-0.38,0.07-0.64-0.09-0.64-0.09l0.02,0.02c-0.09-0.07-0.18-0.14-0.27-0.21
		c-0.05-0.05-0.22-0.25-0.25-0.57c-0.02-0.18,0.03-0.37,0.13-0.53l0,0c0.15-0.24,0.07-0.55-0.17-0.7c-0.24-0.15-0.55-0.07-0.7,0.17
		l0,0c-0.1,0.16-0.24,0.29-0.41,0.36c-0.31,0.13-0.58,0.06-0.64,0.04c-0.13-0.06-0.26-0.13-0.4-0.19l0.01,0c0,0-0.27-0.15-0.39-0.52
		c-0.06-0.18-0.05-0.37,0.01-0.54l0,0c0.09-0.27-0.05-0.55-0.32-0.64c-0.27-0.09-0.55,0.05-0.64,0.32l0,0
		c-0.06,0.18-0.17,0.33-0.32,0.44c-0.24,0.17-0.47,0.18-0.57,0.18c-0.15-0.04-0.3-0.07-0.44-0.1l0.11,0.01c0,0-0.3-0.1-0.49-0.43
		c-0.09-0.16-0.12-0.35-0.1-0.53l0,0c0.03-0.28-0.17-0.53-0.45-0.56c-0.28-0.03-0.53,0.17-0.56,0.45l0,0
		c-0.02,0.18-0.1,0.36-0.22,0.49c-0.21,0.23-0.45,0.29-0.54,0.3c-0.13,0-0.27-0.01-0.4-0.01c-0.06-0.01-0.33-0.07-0.55-0.32
		c-0.12-0.14-0.19-0.32-0.21-0.5l0,0C13.84,0.18,13.59-0.02,13.31,0c-0.28,0.02-0.49,0.27-0.46,0.55l0,0
		c0.02,0.18-0.02,0.37-0.12,0.53c-0.17,0.27-0.4,0.38-0.47,0.4c-0.15,0.03-0.29,0.05-0.43,0.08c-0.11-0.01-0.32-0.05-0.52-0.2
		c-0.15-0.11-0.25-0.27-0.3-0.45l0,0c-0.08-0.27-0.36-0.42-0.63-0.34c-0.27,0.08-0.42,0.36-0.34,0.63l0,0
		c0.05,0.18,0.05,0.37-0.01,0.54c-0.1,0.28-0.29,0.42-0.37,0.48C9.5,2.28,9.34,2.35,9.18,2.42l0.09-0.05c0,0-0.3,0.09-0.65-0.07
		c-0.17-0.08-0.3-0.21-0.39-0.37l0,0C8.09,1.69,7.79,1.6,7.54,1.73C7.3,1.87,7.21,2.18,7.34,2.42l0,0c0.09,0.16,0.13,0.35,0.11,0.53
		C7.41,3.34,7.17,3.53,7.17,3.53l0,0C7.08,3.59,7,3.65,6.91,3.71c-0.06,0.03-0.3,0.14-0.63,0.06C6.11,3.73,5.95,3.62,5.83,3.48l0,0
		c-0.18-0.21-0.5-0.24-0.72-0.06C4.9,3.61,4.87,3.93,5.05,4.14l0,0c0.12,0.14,0.2,0.31,0.21,0.5c0.02,0.31-0.1,0.53-0.15,0.6
		c-0.1,0.11-0.2,0.21-0.3,0.32l0.01-0.02c0,0-0.23,0.21-0.62,0.2c-0.18,0-0.36-0.07-0.51-0.18l0,0c-0.22-0.17-0.54-0.12-0.71,0.1
		C2.82,5.88,2.86,6.2,3.09,6.37l0,0C3.23,6.48,3.35,6.63,3.4,6.81C3.48,7.08,3.43,7.3,3.39,7.4C3.34,7.49,3.28,7.58,3.23,7.67
		C3.16,7.74,2.99,7.89,2.7,7.95c-0.18,0.03-0.37,0-0.54-0.08l0,0C1.91,7.74,1.61,7.85,1.49,8.1C1.36,8.35,1.47,8.66,1.72,8.78l0,0
		c0.17,0.08,0.31,0.21,0.39,0.37c0.12,0.22,0.12,0.43,0.11,0.54C2.15,9.9,2.07,10.11,2,10.33l0.02-0.09c0,0-0.12,0.28-0.48,0.43
		C1.37,10.74,1.18,10.75,1,10.71l0,0c-0.27-0.06-0.55,0.11-0.61,0.38c-0.06,0.27,0.11,0.55,0.38,0.61l0,0
		c0.18,0.04,0.35,0.13,0.47,0.27c0.18,0.21,0.22,0.42,0.23,0.53c-0.02,0.12-0.04,0.25-0.05,0.37c-0.02,0.07-0.11,0.31-0.38,0.5
		c-0.15,0.1-0.34,0.15-0.52,0.15l0,0C0.24,13.51,0.01,13.73,0,14.01c-0.01,0.28,0.21,0.51,0.49,0.52l0,0
		C0.68,14.54,0.86,14.6,1,14.71c0.24,0.19,0.32,0.42,0.34,0.51c0.01,0.16,0.02,0.32,0.03,0.47c-0.01,0.09-0.06,0.33-0.26,0.55
		c-0.13,0.13-0.3,0.22-0.48,0.25l0,0c-0.28,0.05-0.46,0.31-0.41,0.59c0.05,0.28,0.31,0.46,0.59,0.41l0,0
		c0.18-0.03,0.37-0.01,0.54,0.07c0.26,0.13,0.38,0.32,0.43,0.41c0.04,0.16,0.09,0.31,0.13,0.47l-0.04-0.1c0,0,0.06,0.3-0.13,0.63
		c-0.1,0.16-0.24,0.28-0.42,0.35l0,0c-0.26,0.11-0.38,0.4-0.27,0.66c0.11,0.26,0.4,0.38,0.66,0.27l0,0
		c0.17-0.07,0.36-0.09,0.54-0.05c0.28,0.07,0.44,0.23,0.51,0.31c0.08,0.16,0.17,0.32,0.26,0.48c0.03,0.11,0.05,0.31-0.03,0.54
		c-0.06,0.17-0.18,0.32-0.33,0.43l0,0c-0.23,0.16-0.29,0.48-0.13,0.71c0.16,0.23,0.48,0.29,0.71,0.13l0,0
		c0.15-0.11,0.33-0.17,0.52-0.16c0.19,0,0.34,0.06,0.44,0.11c0.14,0.18,0.28,0.35,0.43,0.51c0.05,0.1,0.13,0.3,0.1,0.56
		c-0.02,0.18-0.11,0.35-0.23,0.49l0,0c-0.19,0.21-0.18,0.53,0.03,0.72c0.21,0.19,0.53,0.18,0.72-0.03l0,0
		c0.13-0.14,0.29-0.23,0.47-0.27c0.19-0.04,0.35-0.01,0.46,0.02c0.18,0.15,0.36,0.29,0.55,0.43c0.07,0.1,0.16,0.26,0.18,0.49
		c0.02,0.18-0.03,0.37-0.13,0.53l0,0c-0.15,0.24-0.07,0.55,0.17,0.7h0c0.24,0.15,0.55,0.07,0.7-0.17l0,0
		c0.1-0.16,0.24-0.29,0.41-0.36c0.19-0.08,0.36-0.08,0.48-0.07c0.23,0.12,0.45,0.22,0.69,0.33c0.09,0.08,0.2,0.22,0.27,0.42
		c0.06,0.18,0.05,0.37-0.01,0.54l0,0c-0.09,0.27,0.05,0.55,0.32,0.64c0.27,0.09,0.55-0.05,0.64-0.32l0,0
		c0.06-0.18,0.17-0.33,0.32-0.44c0.15-0.11,0.3-0.15,0.41-0.17c0.24,0.06,0.49,0.12,0.74,0.17c0.1,0.06,0.23,0.17,0.33,0.35
		c0.09,0.16,0.12,0.35,0.1,0.53l0,0c-0.03,0.28,0.17,0.53,0.45,0.56c0.28,0.03,0.53-0.17,0.56-0.45l0,0
		c0.02-0.18,0.1-0.36,0.22-0.49c0.13-0.14,0.27-0.21,0.37-0.25c0.2,0.01,0.4,0.01,0.6,0.01c0.01,0,0.01,0,0.02,0
		c0.09,0.02,0.32,0.09,0.52,0.32c0.12,0.14,0.19,0.32,0.21,0.5l0,0c0.02,0.28,0.27,0.49,0.55,0.46c0.28-0.02,0.49-0.27,0.46-0.55
		l0,0c-0.02-0.18,0.02-0.37,0.12-0.53c0.2-0.33,0.5-0.41,0.5-0.41l-0.02,0c0.12-0.02,0.24-0.04,0.35-0.07c0.07,0,0.33,0,0.6,0.2
		c0.15,0.11,0.25,0.27,0.3,0.45l0,0c0.08,0.27,0.36,0.42,0.63,0.34c0.27-0.08,0.42-0.36,0.34-0.63l0,0
		c-0.05-0.18-0.06-0.37,0.01-0.54c0.13-0.36,0.4-0.5,0.4-0.5l-0.02,0.01c0.17-0.07,0.33-0.14,0.49-0.21
		c0.11-0.02,0.32-0.02,0.56,0.08c0.17,0.08,0.3,0.21,0.39,0.37l0,0c0.14,0.24,0.44,0.33,0.69,0.2c0.24-0.14,0.33-0.44,0.2-0.69l0,0
		c-0.09-0.16-0.13-0.35-0.11-0.53c0.04-0.3,0.2-0.49,0.26-0.55c0.19-0.13,0.38-0.27,0.56-0.41c0.11-0.03,0.28-0.05,0.48-0.01
		c0.18,0.04,0.34,0.15,0.46,0.29l0,0c0.18,0.21,0.5,0.24,0.72,0.05c0.21-0.18,0.24-0.5,0.05-0.72l0,0c-0.12-0.14-0.2-0.31-0.21-0.5
		c-0.02-0.31,0.1-0.52,0.14-0.6c0.09-0.1,0.19-0.2,0.28-0.3c0.08-0.05,0.28-0.18,0.59-0.18c0.18,0,0.36,0.07,0.51,0.18l0,0
		c0.22,0.17,0.54,0.12,0.71-0.1v0c0.17-0.22,0.12-0.54-0.1-0.71l0,0c-0.15-0.11-0.26-0.26-0.31-0.44c-0.11-0.37,0.03-0.64,0.03-0.64
		l-0.18,0.23c0.13-0.2,0.25-0.41,0.37-0.61c0.05-0.07,0.23-0.24,0.53-0.31c0.18-0.04,0.37-0.01,0.54,0.06l0,0
		c0.26,0.12,0.56,0,0.67-0.25c0.12-0.26,0-0.56-0.25-0.67l0,0c-0.17-0.08-0.31-0.2-0.4-0.36c-0.15-0.27-0.13-0.52-0.12-0.6
		c0.05-0.14,0.1-0.28,0.14-0.43c0.05-0.09,0.18-0.28,0.45-0.4c0.17-0.08,0.36-0.09,0.54-0.05l0,0c0.27,0.06,0.54-0.12,0.6-0.39
		c0.06-0.27-0.12-0.54-0.39-0.6l0,0c-0.18-0.04-0.35-0.13-0.47-0.27c-0.18-0.21-0.23-0.42-0.24-0.53c0.02-0.15,0.03-0.3,0.05-0.45
		c0.03-0.1,0.12-0.31,0.35-0.47c0.15-0.11,0.33-0.16,0.52-0.16h0c0.28,0,0.51-0.23,0.51-0.51l0,0
		C29.08,14.3,28.86,14.08,28.58,14.08z M16.24,4.6c0,0,4.71,0.06,7.3,5.19l-0.2,0.4l-3.69,1.21c-0.18,0.06-0.36,0.09-0.54,0.1
		c-0.75,0.03-2.54-0.14-3.06-2.42c-0.03-0.13-0.04-0.27-0.05-0.41l-0.05-3.63L16.24,4.6z M14.54,13.01c0.86,0,1.55,0.7,1.55,1.55
		c0,0.86-0.7,1.55-1.55,1.55c-0.86,0-1.55-0.7-1.55-1.55C12.98,13.71,13.68,13.01,14.54,13.01z M12.7,4.59l0.31,0.31v3.88
		c0,0.18-0.02,0.37-0.07,0.55c-0.2,0.72-0.92,2.37-3.25,2.16c-0.14-0.01-0.27-0.04-0.4-0.08l-3.46-1.08L5.49,9.91
		C5.49,9.91,7.02,5.45,12.7,4.59z M9.8,18.62l-2.16,2.92l-0.5,0.18c0,0-3.71-2.9-2.67-8.55l0.4-0.19l3.67,1.27
		c0.17,0.06,0.34,0.14,0.49,0.25c0.62,0.43,1.94,1.65,0.98,3.78C9.96,18.39,9.88,18.51,9.8,18.62z M19.04,23.86
		c-5.1,2.65-8.96-0.06-8.96-0.06l0.03-0.53l2.16-2.91c0.08-0.11,0.17-0.21,0.28-0.3c1.76-1.54,3.31-0.63,3.9-0.17
		c0.15,0.11,0.27,0.25,0.38,0.4l2.28,3.14L19.04,23.86z M21.93,21.72l-0.5-0.18l-2.16-2.92c-0.08-0.11-0.15-0.23-0.21-0.35
		c-0.96-2.13,0.36-3.35,0.98-3.78c0.15-0.11,0.32-0.19,0.49-0.25l3.67-1.27l0.4,0.19C25.65,18.82,21.93,21.72,21.93,21.72z"/>
	<g>
		<path fill="#FBDC57" d="M32.9,4.63h4.41c0.96,0,1.68,0.23,2.16,0.69s0.72,1.11,0.72,1.95c0,0.87-0.26,1.54-0.78,2.03
			s-1.32,0.73-2.39,0.73h-1.45v3.19H32.9V4.63z M35.57,8.29h0.65c0.51,0,0.87-0.09,1.08-0.27s0.31-0.41,0.31-0.68
			c0-0.27-0.09-0.5-0.27-0.69s-0.52-0.28-1.01-0.28h-0.76V8.29z"/>
		<path fill="#FBDC57" d="M45.63,4.63h7.11v1.83h-4.45v1.37h4.13v1.75h-4.13v1.69h4.58v1.95h-7.24V4.63z"/>
		<path fill="#FBDC57" d="M58.39,4.63h3.94c0.78,0,1.41,0.11,1.88,0.32s0.87,0.51,1.19,0.91s0.54,0.85,0.68,1.38S66.3,8.31,66.3,8.9
			c0,0.92-0.1,1.63-0.31,2.14s-0.5,0.93-0.87,1.27s-0.77,0.57-1.2,0.68c-0.58,0.16-1.11,0.23-1.58,0.23h-3.94V4.63z M61.05,6.58
			v4.69h0.65c0.55,0,0.95-0.06,1.18-0.18s0.42-0.34,0.55-0.64s0.2-0.8,0.2-1.49c0-0.91-0.15-1.53-0.45-1.87s-0.79-0.5-1.48-0.5
			H61.05z"/>
		<path fill="#FBDC57" d="M76.51,11.8H73.5l-0.42,1.42h-2.71l3.23-8.59h2.9l3.23,8.59h-2.78L76.51,11.8z M75.96,9.95l-0.95-3.09
			l-0.94,3.09H75.96z"/>
		<path fill="#FBDC57" d="M84.62,4.63h2.65v6.47h4.14v2.12h-6.8V4.63z"/>
		<path fill="#FBDC57" d="M32.31,15.63h8.07v2.12h-2.71v6.47h-2.65v-6.47h-2.71V15.63z"/>
		<path fill="#FBDC57" d="M44.93,24.22v-8.59h4.42c0.82,0,1.45,0.07,1.88,0.21s0.78,0.4,1.05,0.78s0.4,0.84,0.4,1.39
			c0,0.48-0.1,0.89-0.3,1.23c-0.2,0.35-0.48,0.63-0.84,0.84c-0.23,0.14-0.54,0.25-0.93,0.34c0.32,0.11,0.55,0.21,0.69,0.32
			c0.1,0.07,0.24,0.22,0.42,0.45c0.19,0.23,0.31,0.41,0.37,0.53l1.29,2.49h-3l-1.42-2.62c-0.18-0.34-0.34-0.56-0.48-0.66
			c-0.19-0.13-0.41-0.2-0.65-0.2H47.6v3.49H44.93z M47.6,19.11h1.12c0.12,0,0.36-0.04,0.7-0.12c0.18-0.04,0.32-0.12,0.43-0.27
			s0.17-0.31,0.17-0.5c0-0.28-0.09-0.49-0.26-0.64s-0.51-0.22-0.99-0.22H47.6V19.11z"/>
		<path fill="#FBDC57" d="M62.83,22.8h-3.01l-0.42,1.42h-2.71l3.23-8.59h2.9l3.23,8.59h-2.78L62.83,22.8z M62.28,20.95l-0.95-3.09
			l-0.94,3.09H62.28z"/>
		<path fill="#FBDC57" d="M75.7,20.71l2.33,0.7c-0.16,0.65-0.4,1.2-0.74,1.63s-0.75,0.77-1.25,0.99s-1.13,0.33-1.9,0.33
			c-0.93,0-1.7-0.14-2.29-0.41c-0.59-0.27-1.1-0.75-1.53-1.43c-0.43-0.68-0.64-1.56-0.64-2.62c0-1.42,0.38-2.51,1.13-3.28
			c0.76-0.76,1.83-1.14,3.21-1.14c1.08,0,1.93,0.22,2.55,0.66s1.08,1.11,1.38,2.02l-2.34,0.52c-0.08-0.26-0.17-0.45-0.26-0.57
			c-0.15-0.2-0.33-0.36-0.54-0.47s-0.46-0.16-0.72-0.16c-0.6,0-1.06,0.24-1.38,0.73c-0.24,0.36-0.36,0.92-0.36,1.69
			c0,0.95,0.14,1.6,0.43,1.96c0.29,0.35,0.7,0.53,1.22,0.53c0.51,0,0.89-0.14,1.15-0.43S75.58,21.25,75.7,20.71z"/>
		<path fill="#FBDC57" d="M82.64,15.63h2.65v3.25l2.78-3.25h3.53l-3.13,3.24l3.28,5.35h-3.27l-1.81-3.53l-1.37,1.44v2.1h-2.65V15.63
			z"/>
	</g>
</g>
<g>
</g>
<g>
</g>
<g>
</g>
<g>
</g>
<g>
</g>
<g>
</g>
</svg>
